<mxfile host="Electron" agent="Mozilla/5.0 (Windows NT 10.0; Win64; x64) AppleWebKit/537.36 (KHTML, like Gecko) draw.io/25.0.2 Chrome/128.0.6613.186 Electron/32.2.5 Safari/537.36" version="25.0.2">
  <diagram name="Unstructured Data Examples" id="0">
    <mxGraphModel dx="681" dy="404" grid="1" gridSize="10" guides="1" tooltips="1" connect="1" arrows="1" fold="1" page="1" pageScale="1" pageWidth="827" pageHeight="1169" math="0" shadow="0">
      <root>
        <mxCell id="0" />
        <mxCell id="1" parent="0" />
        <mxCell id="2" value="Unstructured Data" style="ellipse;whiteSpace=wrap;html=1;aspect=fixed;fontFamily=Times New Roman;fontSize=15;fillColor=#f5f5f5;fontColor=#333333;strokeColor=#666666;" parent="1" vertex="1">
          <mxGeometry x="330" y="220" width="160" height="80" as="geometry" />
        </mxCell>
        <mxCell id="3" value="Text Data" style="rounded=1;whiteSpace=wrap;html=1;fontFamily=Times New Roman;fontSize=15;" parent="1" vertex="1">
          <mxGeometry x="190" y="150" width="140" height="70" as="geometry" />
        </mxCell>
        <mxCell id="4" value="Emails, chat messages, social media posts" style="whiteSpace=wrap;html=1;fontFamily=Times New Roman;fontSize=15;" parent="3" vertex="1">
          <mxGeometry width="140" height="70" as="geometry" />
        </mxCell>
        <mxCell id="5" style="fontFamily=Times New Roman;fontSize=15;" parent="1" source="2" target="3" edge="1">
          <mxGeometry relative="1" as="geometry" />
        </mxCell>
        <mxCell id="6" value="Multimedia Data" style="rounded=1;whiteSpace=wrap;html=1;fontFamily=Times New Roman;fontSize=15;" parent="1" vertex="1">
          <mxGeometry x="490" y="150" width="140" height="70" as="geometry" />
        </mxCell>
        <mxCell id="7" value="Images, videos, audio recordings" style="whiteSpace=wrap;html=1;fontFamily=Times New Roman;fontSize=15;" parent="6" vertex="1">
          <mxGeometry width="140" height="70" as="geometry" />
        </mxCell>
        <mxCell id="8" style="fontFamily=Times New Roman;fontSize=15;" parent="1" source="2" target="6" edge="1">
          <mxGeometry relative="1" as="geometry" />
        </mxCell>
        <mxCell id="9" value="Log Data" style="rounded=1;whiteSpace=wrap;html=1;fontFamily=Times New Roman;fontSize=15;" parent="1" vertex="1">
          <mxGeometry x="190" y="310" width="140" height="70" as="geometry" />
        </mxCell>
        <mxCell id="10" value="Server logs, application logs, machine logs" style="whiteSpace=wrap;html=1;fontFamily=Times New Roman;fontSize=15;" parent="9" vertex="1">
          <mxGeometry width="140" height="70" as="geometry" />
        </mxCell>
        <mxCell id="11" style="fontFamily=Times New Roman;fontSize=15;" parent="1" source="2" target="9" edge="1">
          <mxGeometry relative="1" as="geometry" />
        </mxCell>
        <mxCell id="12" value="Document Data" style="rounded=1;whiteSpace=wrap;html=1;fontFamily=Times New Roman;fontSize=15;" parent="1" vertex="1">
          <mxGeometry x="490" y="300" width="140" height="70" as="geometry" />
        </mxCell>
        <mxCell id="13" value="Word documents, PDFs, presentations" style="whiteSpace=wrap;html=1;fontFamily=Times New Roman;fontSize=15;" parent="12" vertex="1">
          <mxGeometry width="140" height="70" as="geometry" />
        </mxCell>
        <mxCell id="14" style="fontFamily=Times New Roman;fontSize=15;" parent="1" source="2" target="12" edge="1">
          <mxGeometry relative="1" as="geometry" />
        </mxCell>
      </root>
    </mxGraphModel>
  </diagram>
</mxfile>
